<svg xmlns="http://www.w3.org/2000/svg" viewBox="0 0 150 24.93253"><defs><style>.af67eeef-a87d-48f7-bc21-606e37cd8f93{fill:#fff;}</style></defs><g id="f47c0319-75a1-4698-9981-dd3d1e286c9c" data-name="Layer 2"><g id="e5998e38-ac12-46b1-8202-3117cf838515" data-name="Layer 1"><path class="af67eeef-a87d-48f7-bc21-606e37cd8f93" d="M8.60883,5.96c5.662,0,8.27788,4.0726,8.27788,9.10549,0,.39728-.03317.99334-.03317.99334H4.66865c.19877,2.64881,1.32454,4.63548,4.10578,4.63548a3.32727,3.32727,0,0,0,3.3112-2.64881h4.63548S15.72778,24.171,8.60883,24.171C2.81441,24.171,0,20.0984,0,15.06551S2.94684,5.96,8.60883,5.96ZM4.80108,13.07884H12.1188c-.298-2.1191-1.22528-3.64215-3.51-3.64215C6.32438,9.43669,5.19862,10.95974,4.80108,13.07884Z"/><path class="af67eeef-a87d-48f7-bc21-606e37cd8f93" d="M35.59324,23.67434H31.12335V21.3566h-.1656A5.9968,5.9968,0,0,1,25.66013,24.171c-4.96668,0-7.45014-4.30442-7.45014-9.1055S20.69345,5.96,25.66013,5.96a6.0826,6.0826,0,0,1,5.132,2.31774h.16559V.49667h4.63549ZM26.98441,9.43669c-2.81441,0-4.13894,2.51638-4.13894,5.62882s1.32453,5.62882,4.13894,5.62882,4.13894-2.51638,4.13894-5.62882S29.79882,9.43669,26.98441,9.43669Z"/><path class="af67eeef-a87d-48f7-bc21-606e37cd8f93" d="M53.30643,23.67434H48.83654V20.85993H48.671A5.97986,5.97986,0,0,1,43.37332,24.171c-4.80108,0-6.12561-3.14548-6.12561-7.11883V6.45668h4.63548v9.60217c0,2.98.82774,4.30441,2.98,4.30441,2.48346,0,3.80775-1.49,3.80775-4.96668V6.45668h4.63548Z"/><path class="af67eeef-a87d-48f7-bc21-606e37cd8f93" d="M58.44248,5.102l4.56512.80487-1.20693,6.84768,7.23957-5.78436,5.38029.94848-7.55794,5.49287,4.89506,11.521-5.576-.983-3.0569-7.83474L60.927,17.71106l-.90841,5.15212-4.56512-.80474Z"/><path class="af67eeef-a87d-48f7-bc21-606e37cd8f93" d="M75.83452,11.75443C76.09938,7.35064,79.64227,5.96,83.61561,5.96c4.13894,0,7.4499,1.49,7.4499,5.95988V23.67434H86.43V20.36326h-.1656A5.53877,5.53877,0,0,1,80.8012,24.171c-3.1456,0-5.46347-1.45684-5.46347-4.63549,0-3.21182,2.64906-4.66865,5.49664-5.39713,2.8805-.72848,5.59565-.96017,5.59565-2.88063,0-1.35757-.99333-2.15226-2.81441-2.15226-1.98667,0-3.07926.79469-3.1456,2.64893Zm6.95335,4.63549c-1.49013.36424-2.74832,1.12576-2.74832,2.64893A2.13135,2.13135,0,0,0,82.45668,21.191c3.1456,0,3.97334-3.64215,3.97334-6.1917A9.41368,9.41368,0,0,1,82.78787,16.38992Z"/><path class="af67eeef-a87d-48f7-bc21-606e37cd8f93" d="M107.45467,6.45668v3.64215h-5.62882V18.211c0,1.49.49679,1.98667,1.98667,1.98667a5.20139,5.20139,0,0,0,1.49013-.16547v3.47655a8.46382,8.46382,0,0,1-2.81466.3312c-3.14536,0-5.29763-.82787-5.29763-4.80109v-8.94H91.89249V6.45668Z"/><path class="af67eeef-a87d-48f7-bc21-606e37cd8f93" d="M111.09656,0a2.64888,2.64888,0,1,1-2.64906,2.64894A2.65673,2.65673,0,0,1,111.09656,0Zm2.31762,23.67434H108.7787V6.45668h4.63548Z"/><path class="af67eeef-a87d-48f7-bc21-606e37cd8f93" d="M123.678,5.96c5.662,0,8.77443,4.0726,8.77443,9.10549S129.34,24.171,123.678,24.171s-8.77442-4.07261-8.77442-9.1055S118.016,5.96,123.678,5.96Zm0,14.73431c2.94684,0,4.13894-2.51638,4.13894-5.62882s-1.1921-5.62882-4.13894-5.62882-4.13894,2.51638-4.13894,5.62882S120.73114,20.69433,123.678,20.69433Z"/><path class="af67eeef-a87d-48f7-bc21-606e37cd8f93" d="M133.94128,6.45668h4.46989V9.27109h.16559A5.98044,5.98044,0,0,1,143.87464,5.96C148.67572,5.96,150,9.1055,150,13.07884v10.5955h-4.63548V14.07217c0-2.98-.82774-4.30441-2.98-4.30441-2.48322,0-3.80775,1.49-3.80775,4.96668v8.9399h-4.63548Z"/></g></g></svg>